<svg id="Layer_1" enable-background="new 0 0 511.96 511.96" height="512" viewBox="0 0 511.96 511.96" width="512" xmlns="http://www.w3.org/2000/svg"><path d="m350.097 87.904-83.51-83.51c-5.857-5.858-15.355-5.858-21.213 0l-83.51 83.51c-75.63 75.63-75.63 198.69 0 274.32l79.117 79.117v55.619c0 8.284 6.716 15 15 15s15-6.716 15-15v-55.619l79.117-79.117c75.629-75.63 75.629-198.69-.001-274.32zm-79.117 311.011v-51.888l65.255-65.255c5.858-5.857 5.858-15.355 0-21.213s-15.355-5.858-21.213 0l-44.042 44.042v-69.921l39.782-39.782c5.858-5.858 5.858-15.355 0-21.213-5.857-5.858-15.355-5.858-21.213 0l-18.569 18.569v-46.223c0-8.284-6.716-15-15-15s-15 6.716-15 15v46.223l-18.569-18.569c-5.857-5.858-15.355-5.858-21.213 0s-5.858 15.355 0 21.213l39.782 39.782v69.922l-44.042-44.042c-5.857-5.858-15.355-5.858-21.213 0s-5.858 15.355 0 21.213l65.255 65.255v51.888l-57.904-57.903c-63.933-63.934-63.933-167.961 0-231.895l72.904-72.903 72.904 72.903c63.933 63.934 63.933 167.961 0 231.895z"/></svg>