<svg height="512pt" viewBox="-53 0 512 512.00025" width="512pt" xmlns="http://www.w3.org/2000/svg"><path d="m302.027344 6.964844-52.003906 91.566406c-6.550782 11.308594-10.007813 24.257812-10.007813 37.441406 0 41.359375 33.648437 75.007813 75.007813 75.007813 41.355468 0 75.003906-33.648438 75.003906-75.007813 0-13.195312-3.472656-26.148437-10.007813-37.441406l-52.003906-91.566406c-5.363281-9.285156-20.625-9.285156-25.988281 0zm0 0"/><path d="m120.007812 375.992188c66.171876 0 120.007813-53.839844 120.007813-120.007813 0-60.628906-73.976563-147.753906-108.289063-192.40625-2.855468-3.5625-7.160156-5.625-11.71875-5.625-4.554687 0-8.863281 2.0625-11.71875 5.625-34.640624 45.429687-108.289062 131.542969-108.289062 192.40625 0 66.167969 53.835938 120.007813 120.007812 120.007813zm0 0"/><path d="m405.027344 420.992188c0-45.222657-70.273438-134.363282-78.285156-144.382813-5.714844-7.121094-17.726563-7.121094-23.441407 0-8.011719 10.019531-78.285156 99.160156-78.285156 144.382813 0 49.632812 40.375 91.007812 90.007813 91.007812 49.628906 0 90.003906-41.375 90.003906-91.007812zm0 0"/></svg>